{
    "asset" : {
        "generator" : "Khronos glTF Blender I/O v1.6.16",
        "version" : "2.0"
    },
    "scene" : 0,
    "scenes" : [
        {
            "name" : "Scene",
            "nodes" : [
                0,
                1,
                2
            ]
        }
    ],
    "nodes" : [
        {
            "name" : "Light",
            "rotation" : [
                0.16907575726509094,
                0.7558803558349609,
                -0.27217137813568115,
                0.570947527885437
            ],
            "translation" : [
                4.076245307922363,
                5.903861999511719,
                -1.0054539442062378
            ]
        },
        {
            "name" : "Camera",
            "rotation" : [
                0.483536034822464,
                0.33687159419059753,
                -0.20870360732078552,
                0.7804827094078064
            ],
            "translation" : [
                7.358891487121582,
                4.958309173583984,
                6.925790786743164
            ]
        },
        {
            "mesh" : 0,
            "name" : "Cube"
        }
    ],
    "materials" : [
        {
            "doubleSided" : true,
            "name" : "Material.001",
            "pbrMetallicRoughness" : {
                "baseColorFactor" : [
                    0.000759995193220675,
                    0.0024767874274402857,
                    0.0036421006079763174,
                    1
                ],
                "metallicFactor" : 0,
                "roughnessFactor" : 0.5
            }
        }
    ],
    "meshes" : [
        {
            "name" : "Cube.001",
            "primitives" : [
                {
                    "attributes" : {
                        "POSITION" : 0,
                        "NORMAL" : 1,
                        "TEXCOORD_0" : 2
                    },
                    "indices" : 3,
                    "material" : 0
                }
            ]
        }
    ],
    "accessors" : [
        {
            "bufferView" : 0,
            "componentType" : 5126,
            "count" : 75264,
            "max" : [
                1.0620578527450562,
                1.0620579719543457,
                1.0620579719543457
            ],
            "min" : [
                -1.0620578527450562,
                -1.0620579719543457,
                -1.0620578527450562
            ],
            "type" : "VEC3"
        },
        {
            "bufferView" : 1,
            "componentType" : 5126,
            "count" : 75264,
            "type" : "VEC3"
        },
        {
            "bufferView" : 2,
            "componentType" : 5126,
            "count" : 75264,
            "type" : "VEC2"
        },
        {
            "bufferView" : 3,
            "componentType" : 5125,
            "count" : 112896,
            "type" : "SCALAR"
        }
    ],
    "bufferViews" : [
        {
            "buffer" : 0,
            "byteLength" : 903168,
            "byteOffset" : 0
        },
        {
            "buffer" : 0,
            "byteLength" : 903168,
            "byteOffset" : 903168
        },
        {
            "buffer" : 0,
            "byteLength" : 602112,
            "byteOffset" : 1806336
        },
        {
            "buffer" : 0,
            "byteLength" : 451584,
            "byteOffset" : 2408448
        }
    ],
    "buffers" : [
        {
            "byteLength" : 2860032,
            "uri" : "opening_dice.bin"
        }
    ]
}